<svg width="8102" height="1033" viewBox="0 0 8102 1033" fill="none" xmlns="http://www.w3.org/2000/svg">
<path d="M2599.33 349.719C2712.08 308.909 2848.73 303.505 2936.63 398.35C2983.03 448.403 2995.38 522.487 3002.93 588.134C3004.91 605.671 3007.41 623.493 3010 641.457L3011.21 649.874V649.876C3017.73 695.219 3024.33 741.169 3024.33 785.312C3024.33 921.677 2914.37 1032.21 2778.71 1032.21C2719.2 1032.21 2656.11 1031.36 2607.73 992.728C2597.62 984.652 2588.04 975.88 2578.48 967.113C2562.6 952.571 2546.75 938.046 2528.51 926.749C2501.31 909.899 2470.6 901.31 2440.02 892.758C2431.63 890.412 2423.25 888.069 2414.96 885.56C2382.43 875.701 2356.21 856.41 2333.39 830.909C2288.78 781.141 2265.01 712.791 2265.01 646.102C2265.01 581.734 2284.77 515.803 2328.67 467.788C2354.2 439.901 2385.71 428.852 2418.87 418.462L2425.52 416.388C2436.09 413.101 2446.79 409.772 2457.5 405.886C2481.17 397.274 2504.44 387.664 2527.72 378.055C2551.46 368.254 2575.19 358.455 2599.33 349.719ZM3899.81 24.5977C4132.67 24.5977 4260.26 169.52 4260.26 304.533C4260.26 368.943 4220.62 408.58 4156.21 408.58C3998.9 408.58 4049.68 153.417 3850.26 153.417C3732.59 153.417 3657.03 251.271 3657.03 406.103C3657.03 624.105 3774.7 775.221 3956.79 775.222C4162.4 775.222 4180.98 611.719 4245.39 611.719C4268.93 611.719 4281.31 627.822 4281.31 656.311C4281.31 806.188 4126.48 975.883 3872.56 975.883C3596.34 975.883 3419.21 798.756 3419.21 522.536C3419.21 235.169 3622.35 24.5977 3899.81 24.5977ZM1784.96 155.887C1820.88 155.887 1836.99 175.705 1833.27 217.819C1830.79 252.502 1829.55 284.707 1827.08 314.435C1915.02 313.196 1955.9 309.48 1994.29 309.48C2032.69 309.481 2045.08 323.105 2045.08 362.742V372.651C2045.08 412.288 2030.22 425.913 1989.34 425.913C1949.7 425.913 1906.35 423.436 1822.12 422.197C1817.17 532.437 1815.93 615.427 1818.41 688.508C1820.88 771.498 1846.9 804.941 1908.83 804.941C2005.44 804.941 2005.44 719.475 2048.8 719.475C2066.14 719.475 2076.05 734.338 2076.05 756.634C2076.05 886.692 1978.19 975.876 1838.22 975.876C1685.87 975.876 1607.83 892.886 1605.36 733.1C1602.88 636.485 1605.36 523.767 1610.31 419.721H1563.24C1524.85 419.721 1506.27 407.333 1506.27 380.083V376.367C1506.27 294.616 1701.97 155.887 1784.96 155.887ZM6086.69 155.861C6122.61 155.861 6138.71 175.68 6135 217.794C6132.52 252.476 6131.28 284.682 6128.8 314.409C6216.75 313.171 6257.63 309.454 6296.02 309.454C6334.42 309.454 6346.81 323.08 6346.81 362.717V372.626C6346.81 412.263 6331.94 425.888 6291.07 425.888C6251.43 425.888 6208.08 423.411 6123.85 422.172C6118.9 532.412 6117.66 615.402 6120.13 688.482C6122.61 771.472 6148.62 804.916 6210.56 804.916C6307.17 804.916 6307.17 719.45 6350.52 719.449C6367.86 719.449 6377.77 734.313 6377.77 756.608C6377.77 886.667 6279.92 975.85 6139.95 975.851C5987.6 975.851 5909.56 892.86 5907.09 733.074C5904.61 636.459 5907.09 523.741 5912.04 419.694H5864.97C5826.57 419.694 5807.99 407.308 5807.99 380.058V376.342C5807.99 294.591 6003.7 155.862 6086.69 155.861ZM1192.91 292.062C1355.17 292.062 1479.04 391.155 1479.04 534.839C1479.04 570.76 1465.41 584.385 1423.3 598.01L1085.14 715.683C1124.78 776.376 1187.95 812.297 1264.75 812.297C1405.96 812.297 1419.58 721.875 1464.17 721.875C1481.51 721.875 1492.66 735.501 1492.66 756.558C1492.66 864.32 1372.51 975.8 1183 975.8C979.859 975.8 834.937 838.309 834.937 637.647C834.937 441.94 989.768 292.063 1192.91 292.062ZM4695.8 292.059C4858.06 292.059 4981.93 391.15 4981.93 534.834C4981.93 570.755 4968.3 584.381 4926.19 598.006L4588.04 715.678C4627.67 776.372 4690.85 812.293 4767.64 812.293C4908.85 812.293 4922.47 721.871 4967.07 721.871C4984.41 721.871 4995.55 735.497 4995.55 756.554C4995.55 864.316 4875.4 975.795 4685.89 975.795C4482.75 975.795 4337.83 838.304 4337.83 637.643C4337.83 441.935 4492.66 292.059 4695.8 292.059ZM7317.09 293.339C7511.55 293.339 7616.84 388.715 7647.81 626.536L7656.48 698.378C7671.34 812.334 7743.18 797.471 7743.18 842.062C7743.18 889.13 7651.52 965.928 7578.44 965.928C7537.57 965.928 7501.65 939.915 7473.16 879.222H7465.72C7414.94 943.632 7339.38 974.598 7240.29 974.598C7096.61 974.598 7007.42 901.517 7007.42 786.322C7007.42 659.98 7118.9 572.035 7291.07 572.035C7338.14 572.035 7387.69 578.229 7428.56 589.377L7422.37 533.638C7408.75 439.5 7376.54 393.67 7323.28 393.67C7220.47 393.67 7241.53 524.967 7130.05 524.967C7075.55 524.967 7042.11 494 7042.11 441.977C7042.11 354.032 7156.06 293.339 7317.09 293.339ZM7977.18 23.3174C8032.92 23.3174 8052.74 46.8515 8049.02 118.693C8037.88 347.844 8036.64 595.575 8042.83 797.476C8045.31 865.601 8101.05 866.84 8101.05 911.432C8101.05 948.591 8047.79 964.693 7933.83 964.693C7818.64 964.693 7767.85 948.591 7767.85 911.432C7767.85 871.795 7817.4 865.601 7821.11 801.191C7829.78 598.052 7829.78 413.492 7819.87 247.513C7814.92 163.285 7762.9 173.194 7762.9 132.318C7762.9 76.579 7902.86 23.3174 7977.18 23.3174ZM5535.42 292.059C5669.19 292.059 5741.04 367.616 5759.62 529.88C5767.05 602.96 5778.2 698.337 5790.58 797.429C5799.25 869.27 5852.51 868.032 5852.51 911.385C5852.51 947.306 5802.97 964.647 5693.97 964.647C5583.73 964.647 5530.46 948.544 5530.46 911.385C5530.46 869.271 5576.3 869.27 5571.34 801.145C5565.15 713.2 5556.48 633.926 5550.28 567.039C5539.14 475.379 5509.41 436.981 5443.76 436.98C5374.4 436.98 5318.66 493.959 5317.42 583.142C5313.7 650.029 5312.46 736.735 5316.18 811.054C5318.66 872.986 5360.77 871.748 5360.77 911.385C5360.77 946.067 5308.75 964.647 5202.22 964.647C5090.74 964.647 5042.44 948.544 5042.44 911.385C5042.44 871.748 5091.98 865.554 5096.94 801.145C5103.13 699.575 5104.37 605.437 5099.41 518.731C5094.46 436.981 5044.91 439.458 5044.91 399.821C5044.91 344.082 5179.93 292.059 5254.25 292.059C5314.94 292.059 5322.37 329.218 5313.7 418.401L5319.89 419.64C5364.49 335.411 5441.28 292.059 5535.42 292.059ZM6628.3 292.059C6691.47 292.059 6696.43 329.218 6685.28 440.696H6691.47C6726.16 352.752 6791.8 293.297 6874.79 293.297C6956.54 293.297 7011.05 347.798 7011.05 433.265C7011.05 505.107 6973.89 547.221 6911.95 547.221C6832.68 547.221 6840.11 472.901 6783.13 472.901C6727.39 472.901 6686.52 553.415 6686.52 662.416C6686.52 688.428 6686.52 726.826 6689 785.042C6692.71 864.316 6771.99 859.362 6771.99 911.385C6771.99 948.544 6717.48 964.647 6593.62 964.647C6469.75 964.647 6416.49 948.544 6416.49 911.385C6416.49 871.748 6464.8 865.554 6469.75 801.145C6475.95 699.575 6477.19 605.437 6472.23 518.731C6466.04 436.981 6418.97 439.458 6418.97 399.821C6418.97 344.082 6552.74 292.059 6628.3 292.059ZM452.108 45.5488C687.452 46.7875 818.75 154.55 818.75 349.019C818.75 541.01 682.498 652.489 445.915 652.489H294.8C296.038 697.081 296.038 745.388 299.754 793.695C305.947 864.298 385.22 859.344 385.221 911.367C385.221 951.004 334.436 964.63 193.229 964.63C50.7847 964.63 0 951.004 0 911.367C0.000244404 866.776 59.4549 865.537 63.1709 797.411C70.6028 595.511 70.6028 399.803 63.1709 209.051C59.4548 138.448 4.95543 139.686 4.95508 92.6182C4.95508 61.6519 32.2054 44.3105 92.8994 44.3105L452.108 45.5488ZM7333.19 647.594C7263.82 647.594 7221.71 683.515 7221.71 745.447C7221.71 814.812 7267.54 863.119 7338.14 863.119C7403.79 863.119 7452.1 819.766 7452.1 760.311C7452.1 694.662 7406.27 647.594 7333.19 647.594ZM3205.73 482.258C3270.51 482.258 3323.03 535.048 3323.03 600.169C3323.03 665.29 3270.51 718.081 3205.73 718.081C3140.94 718.081 3088.42 665.29 3088.42 600.169C3088.42 535.048 3140.94 482.258 3205.73 482.258ZM1171.85 393.632C1095.05 393.632 1044.27 459.281 1044.27 560.851C1044.27 581.908 1045.51 601.726 1049.22 620.306L1267.23 538.555C1287.04 531.123 1290.76 523.691 1290.76 508.827C1290.76 471.668 1257.32 393.632 1171.85 393.632ZM4674.74 393.628C4597.95 393.628 4547.16 459.276 4547.16 560.846C4547.16 581.903 4548.4 601.722 4552.12 620.302L4770.12 538.55C4789.94 531.118 4793.65 523.686 4793.65 508.822C4793.65 471.663 4760.21 393.628 4674.74 393.628ZM343.106 168.176C310.902 168.176 299.754 179.323 297.276 212.767C296.038 282.131 294.8 389.894 294.8 472.884C294.8 513.759 308.425 527.385 349.3 527.385H421.142C536.336 527.385 590.838 481.555 590.838 386.179C590.838 251.166 516.518 168.176 393.892 168.176H343.106ZM3108.44 146.722C3172.44 146.722 3224.33 198.877 3224.33 263.212C3224.33 327.547 3172.44 379.701 3108.44 379.701C3044.44 379.701 2992.55 327.547 2992.55 263.212C2992.55 198.877 3044.44 146.722 3108.44 146.722ZM2431.57 79.832C2494.72 79.8322 2545.91 131.293 2545.91 194.773C2545.91 258.254 2494.72 309.715 2431.57 309.715C2368.41 309.715 2317.22 258.254 2317.22 194.773C2317.22 131.293 2368.41 79.832 2431.57 79.832ZM2794.01 0C2855.16 0 2904.74 49.5145 2904.74 110.594C2904.74 171.673 2855.16 221.188 2794.01 221.188C2732.86 221.188 2683.29 171.673 2683.29 110.594C2683.29 49.5146 2732.87 0.000129605 2794.01 0Z" fill="#163E6F"/>
</svg>
